# xmcd
#
# Track frame offsets:
#	150
#	15914
#	31803
#	47062
#	67527
#	89313
#	107374
#	124277
#	142149
#	159367
#	174441
#	187831
#	204546
#	208208
#
# Disc length: 2969 seconds
# Revision: 0
# Processed by: cddbd v1.5.2PL0 Copyright (c) Steve Scherf et al.
# Submitted via: dBpowerAMP V12.0
#
DISCID=af0b970e
DTITLE=The Stardust Cowboys - How the Cowboys Swung the West
DYEAR=2011
DGENRE=Country
TTITLE0=Easier to Know
TTITLE1=Blue Mesa
TTITLE2=How the Cowboys Swung the West
TTITLE3=When We Dance
TTITLE4=Pirate of the Placers
TTITLE5=Picnic Basket
TTITLE6=Along the Navajo Trail
TTITLE7=She's Always On My Mind
TTITLE8=Wedding Vow
TTITLE9=Change My Heart
TTITLE10=Butterflies in Heaven
TTITLE11=Go 'n North
TTITLE12=Tribute to Sal Sage
TTITLE13=Last Cattle Call
EXTD=
EXTT0=
EXTT1=
EXTT2=
EXTT3=
EXTT4=
EXTT5=
EXTT6=
EXTT7=
EXTT8=
EXTT9=
EXTT10=
EXTT11=
EXTT12=
EXTT13=
PLAYORDER=
